<?xml version="1.0" encoding="utf-8"?>
<!-- Generator: Adobe Illustrator 22.0.1, SVG Export Plug-In . SVG Version: 6.00 Build 0)  -->
<svg version="1.1" id="Layer_1" xmlns="http://www.w3.org/2000/svg" xmlns:xlink="http://www.w3.org/1999/xlink" x="0px" y="0px"
	 viewBox="0 0 84.8 81.4" style="enable-background:new 0 0 84.8 81.4;" xml:space="preserve">
<style type="text/css">
	.st0{fill:#E2492F;}
</style>
<path class="st0" d="M82.2,15.4l1.9-7.8c0.6-1.5-0.1-3.3-1.6-3.9c-1.5-0.6-3.3,0.1-3.9,1.6c-0.1,0.3-0.2,0.6-0.2,0.9L76.7,13
	c-1.5-0.2-3.1,0.1-4.4,0.8c-1.5,0.8-2.7,2-3.5,3.5l-3.4,6.1c-0.6,1-1.2,2-1.9,3c0-0.6,0-1.2,0-1.8v-3.2c0.1-2.1-0.6-4.2-2-5.9
	c-0.5-0.5-1.1-1-1.7-1.4c1.6-0.3,3.1-1.2,4.2-2.5v-0.1c3-2.8,2.9-7.3,2.9-7.5c0.1-0.5-0.3-0.9-0.8-1c0,0-0.1,0-0.1,0
	c-0.2,0-4.6,0-7.4,2.8c-0.3,0.4-0.6,0.7-0.9,1.2c0-1.1-0.1-2.2-0.2-3.2c-0.1-0.5-0.6-0.9-1.1-0.9c-0.5,0.1-0.9,0.6-0.9,1.1
	c0.3,2.8,0.3,5.6-0.1,8.4c-4.2-0.4-8,2.2-9.1,6.3l-1,3.1c-0.4,1.5-1,2.9-1.7,4.3c-1-0.3-2.1-0.4-3.1-0.2l1.4-2.5
	c1-1.9,1.1-4.1,0.3-6c-0.5-1.3-1.5-2.4-2.7-3.1c1-0.9,1.8-2,2.4-3.2c2-4.1,0.4-8.8,0.3-9c-0.2-0.5-0.7-0.8-1.3-0.6
	c-0.3,0.1-0.5,0.3-0.6,0.6c0,0-1.3,3.2-3.1,6.9l-0.5,1c0-0.4,0-0.7,0.1-1.1c0.3-4.1,0.7-7.5,0.7-7.5c0.1-0.5-0.2-1.1-0.8-1.2
	c-0.3-0.1-0.7,0-0.9,0.3c-0.2,0.1-3.8,3.5-4.1,8c-0.1,1.4,0.1,2.7,0.6,4c-1.3,0.1-2.5,0.6-3.5,1.4c-1.7,1.3-2.8,3.3-2.8,5.4
	l-0.1,7.4c-2.8-2.5-6.8-3.5-11.2-2.8c1.1-1.3,1.8-2.9,2-4.6c0.3-3.9-2.8-7.1-2.9-7.3c-0.4-0.4-0.9-0.4-1.3-0.1
	c-0.6,0.5-1.1,1-1.6,1.5c-1.4-1.4-3-2.6-4.9-3.4c-0.5-0.2-1,0-1.3,0.4c-0.1,0.2-2.7,5-1.2,9.5c1,2.5,2.9,4.6,5.2,5.9
	c-2.5,1.2-4.6,3-6.1,5.3c-1.8,2.8-2.2,6.3-1.2,9.5H1c-0.6,0-1,0.4-1,1v39c0,0.6,0.4,1,1,1h80c0.6,0,1-0.4,1-1v-39c0-0.5-0.4-1-0.9-1
	l3.6-17.3C85.2,20.3,84.3,17.4,82.2,15.4z M70.5,18.2c0.6-1.1,1.5-2.1,2.6-2.7c1.3-0.6,2.7-0.8,4.1-0.5c0.1,0,0.1,0,0.2,0
	c0.1,0,0.1,0,0.2,0c0.1,0,0.1,0,0.2-0.1c0.1,0,0.2-0.1,0.3-0.2c0,0,0.1-0.1,0.1-0.1c0-0.1,0.1-0.1,0.1-0.2c0,0,0.1-0.1,0.1-0.1
	l1.8-7.6C80.4,6.2,81,5.9,81.5,6c0,0,0.1,0,0.1,0c0.4,0.2,0.6,0.7,0.5,1.1l-2,8.4c0,0,0,0.1,0,0.1c0,0.1,0,0.1,0,0.2
	c0,0.1,0,0.1,0.1,0.2c0,0.1,0,0.1,0.1,0.2c0,0.1,0.1,0.1,0.1,0.2c0,0,0.1,0.1,0.1,0.1c1.8,1.5,2.7,3.9,2.3,6.2l-0.6,2.9l-0.8-0.9
	c-1-1.2-2.5-1.9-4.1-1.8h-0.2c-1,0.1-1.9-0.4-2.5-1.1c-1.1-1.4-2.8-2.1-4.6-1.9h-0.2l-0.3,0.1L70.5,18.2z M67.1,24.3l0.9-1.6
	l2.3-0.8c1-0.1,2,0.3,2.7,1.1c1,1.3,2.6,2,4.2,1.9h0.2c0.9,0,1.8,0.3,2.4,1.1l1.7,2.1h0.1L79,40.4h-7c-0.6,0-1,0.4-1,1v11H49.3
	l3.7-6.9c0.8,0.6,1.8,0.9,2.8,0.9c0.7,0,1.5-0.2,2.1-0.5c1.2-0.6,2.1-1.6,2.5-2.9c0.9-2.6-0.4-5.4-3-6.4c2.1-2.3,4.2-4.6,6.1-7l0,0
	C64.9,27.9,66.1,26.1,67.1,24.3L67.1,24.3z M2,42.4h7v10H2V42.4z M11,47.7c2.3-5.9,8.6-9.9,15.7-9.9c1.6,0,3.2,0.2,4.7,0.6
	c0.5,2.1,2,3.8,4,4.6c1.3,0.5,2.7,0.5,4,0.1l-0.5,3.4c-2.3-1.7-5.4-1.6-7.6,0.2c-0.2,0.1-0.3,0.3-0.4,0.4c-2.4-2.2-6-2-8.2,0.4
	c-1.2,1.4-1.8,3.2-1.4,5H11V47.7z M80,54.4v7H2v-7H80z M23.1,51.3c0-2.1,1.7-3.8,3.8-3.8s3.8,1.7,3.8,3.8c0,0.4-0.1,0.8-0.2,1.1
	h-7.3C23.1,52.1,23.1,51.7,23.1,51.3z M32.7,52.4c0.1-0.4,0.1-0.7,0.1-1.1c0-0.9-0.2-1.9-0.7-2.7l0,0c0.1-0.2,0.3-0.3,0.5-0.5
	c1.7-1.4,4.3-1.2,5.7,0.5c0,0,0,0,0,0c0.1,0.1,0.1,0.1,0.2,0.2L38,52.3c0,0,0,0.1,0,0.1H32.7z M2,63.4h78v7H2V63.4z M73,52.4v-10h7
	v10H73z M60.1,7.1c1.4-1.2,3.1-2,5-2.1C65,6.8,64.2,8.6,63,10l0,0c-1.4,1.2-3.1,2-5,2.1C58.2,10.2,58.9,8.5,60.1,7.1z M47.3,22.3
	l1-3.1c0.4-1.4,1.2-2.7,2.4-3.5c3-2.3,7.2-1.7,9.5,1.3c0.9,1.2,1.4,2.8,1.4,4.3v3.2c0,1.4,0.1,2.8,0.2,4.2c-1.2,1.6-2.6,3.1-4,4.6
	c-0.2-2.5-1.8-4.8-4.2-5.6c-2.1-0.7-4.5-0.3-6.2,1.2c-0.5-0.8-1.1-1.5-1.8-2C46.3,25.4,46.8,23.8,47.3,22.3z M43.3,27.9
	c1.4,0.5,2.4,1.6,2.7,3c0.1,0.3,0.2,0.5,0.5,0.6l0,0c0.5,0.3,1.1,0.2,1.4-0.3c1.1-1.7,3.1-2.4,5-1.7c2.3,0.9,3.5,3.5,2.6,5.8
	c-0.2,0.5-0.5,1-0.8,1.4c0,0.1-0.1,0.1-0.1,0.2c0,0.1-0.1,0.1-0.1,0.2c0,0.1,0,0.1,0,0.2c0,0.1,0,0.1,0,0.2l0,0l0,0
	c0,0.1,0.1,0.2,0.1,0.3l0,0c0.2,0.4,0.6,0.6,1,0.6c0.4,0,0.8,0,1.2,0.2c1.6,0.6,2.4,2.3,1.8,3.8c0,0,0,0,0,0
	c-0.2,0.8-0.8,1.5-1.6,1.9c-0.7,0.3-1.5,0.4-2.2,0.1c-0.5-0.2-1-0.5-1.3-1c-0.3-0.4-1-0.5-1.4-0.2c-0.2,0.1-0.3,0.3-0.3,0.5l0,0
	L47,52.4h-2.7l2.4-7.2c0.1-0.5-0.2-1.1-0.7-1.2c-0.5-0.1-1,0.1-1.2,0.6l-2.6,7.6c0,0.1,0,0.2,0,0.2H40l2-10.9l0,0
	c0-0.3-0.2-0.6-0.4-0.8c-0.4-0.4-1-0.5-1.5-0.2c-1.1,0.9-2.6,1.1-4,0.6c-2.3-0.8-3.4-3.3-2.7-5.6c0.5-1.5,1.8-2.6,3.3-2.9h0.1
	l0.2-0.1l0.2-0.1l0.1-0.1c0.1-0.1,0.1-0.1,0.1-0.2V32c0-0.1,0.1-0.2,0.1-0.2l0,0c0-0.4,0.1-0.7,0.2-1.1c0.3-1.1,1.1-2.1,2.2-2.6
	C41,27.6,42.2,27.5,43.3,27.9L43.3,27.9z M41,5.7c0.1,1.5-0.2,3-0.8,4.4c-0.6,1.2-1.5,2.3-2.6,3.1h-0.2c0.5-1,1.1-2.2,1.8-3.6
	S40.5,6.9,41,5.7z M33.9,8.4c0.1-1.5,0.6-2.9,1.5-4.2c-0.1,1.2-0.2,2.7-0.3,4.2c-0.1,1.3-0.2,2.6-0.2,4h-0.1h-0.1c0-0.1,0-0.1,0-0.2
	C34,11.1,33.8,9.7,33.9,8.4z M30.1,15.3c1.1-0.9,2.6-1.2,4-0.9l3.2,0.8c1.4,0.4,2.6,1.4,3.1,2.7c0.6,1.4,0.5,3-0.2,4.3L39.3,24
	L36,23.1c-0.5-0.1-1.1,0.2-1.2,0.8c-0.1,0.5,0.2,1,0.7,1.1l2.8,0.7l-1,1.9c-0.6,0.7-1.1,1.4-1.4,2.3c-0.1,0.3-0.2,0.5-0.2,0.8
	c-2,0.6-3.5,2.1-4.2,4c-0.2,0.5-0.3,1-0.3,1.5c-1.1-0.3-2.3-0.4-3.5-0.5v-2.2l2.3,0.6c0.5,0.1,1.1-0.2,1.2-0.8
	c0.1-0.5-0.2-1-0.7-1.1l-2.8-0.7l0.1-4.4l2.8,0.7c0.5,0.1,1.1-0.2,1.2-0.8c0.1-0.5-0.2-1-0.7-1.1l-2.9-0.8c-0.1,0-0.2,0-0.3,0
	l0.1-5.2l2.5,0.6c0.5,0.1,1-0.3,1.1-0.9c0-0.4-0.2-0.8-0.6-1L28.2,18C28.6,16.9,29.2,16,30.1,15.3L30.1,15.3z M12.9,13.9
	c1.1,1.4,1.8,3.2,1.8,5c-0.3,1.8-1.2,3.4-2.5,4.6c-1.1-1.4-1.8-3.2-1.8-5C10.7,16.8,11.6,15.1,12.9,13.9z M5.5,19.1
	c-0.9-2.6,0-5.6,0.6-7c1.3,0.7,2.5,1.7,3.5,2.8c-0.7,1.1-1.1,2.3-1.2,3.6c-0.1,2,0.5,4,1.7,5.6C8.7,23.2,6.4,21.6,5.5,19.1L5.5,19.1
	z M4.4,32c1.8-2.7,4.5-4.6,7.6-5.6c5.8-2,11.1-0.9,13.9,3l0,0l-0.1,6.5c-5.8,0.2-11.3,3-14.8,7.7v-2.1c0-0.6-0.4-1-1-1H3.6
	C2.5,37.6,2.8,34.5,4.4,32z M80,79.4H2v-7h78V79.4z"/>
</svg>
