<svg version="1" xmlns="http://www.w3.org/2000/svg" width="1200" height="1200" viewBox="0 0 900.000000 900.000000"><path d="M530.7 155.6c-.1.1-3.8.5-8.2.9-24.5 1.9-45.6 8.8-62.1 20.1-7 4.8-15.8 12.5-19.9 17.5-5.5 6.6-12.8 19.5-12.8 22.5 0 .8-.3 1.4-.7 1.4-.6 0-2.9 6.5-3.6 10.2-.1.5-.2.9-.4 1-.5.8-1.1 6.3-1.5 14.8-.4 9.3.8 17.9 3.4 24.5.7 1.6 1.1 3 1 3-.1 0 .8 2 2.1 4.5 4.2 8.2 8.6 13.8 17.5 21.9 5.2 4.8 18.1 12.2 28 16.1 7.2 2.8 16.4 5.4 23.5 6.5 14.6 2.2 18.1 2.5 31.5 2.4 15.3-.1 26.6-.8 34.1-2.3 1.2-.2 4.5-.7 7.4-1.1 6-.8 8.4-1.2 10.8-1.9.9-.3 2.8-.7 4.2-1 4.4-.9 11.8-2.5 14-3.1.3-.1 1.9-.5 3.5-.9 10.5-2.4 53.8-16.4 65.5-21l8.5-3.4.8 3.1c.4 1.8 1 4.1 1.2 5.2.2 1.1.7 3.1 1 4.5.3 1.4 1.2 5.9 1.9 10 1.2 6.6 1.7 9.8 3.1 21 1.4 10.4 1.9 25.1 1.9 47-.1 25.9-.7 37.3-2.9 53.1-.3 2.2-.8 5.8-1.1 8.1-.3 2.4-.7 5.5-.9 6.9-.3 1.4-.7 4.2-.9 6.2-.3 2-.8 5.4-1.2 7.4-.4 2.1-.8 4.7-1 5.8-1 5.6-2.8 13.9-4.6 21.5-1.1 4.7-2.2 9.5-2.4 10.7-.2 1.2-2.3 8.4-4.5 16-2.3 7.6-4.2 14.6-4.2 15.5-.1 1-.6 1.8-1.1 1.8-.5 0-.6.3-.3.7.4.3.3 1.1-.2 1.7-.6.7-1.2 2.3-1.4 3.6-.7 3.5-9 25.2-15 39-6.4 14.8-18.9 39.5-25.6 50.5-3.6 5.8-19.4 29.9-20 30.5-.4.3-3.2 4-6.5 8.3-3.2 4.4-6.5 8.7-7.4 9.6-1 .9-3 3.5-4.7 5.6-4.7 6.4-29.3 30.5-37.9 37.4-11.3 9-24.1 17.3-36 23.7-11.9 6.3-27.1 12.9-31.8 13.9-1.8.4-3.7 1.1-4.3 1.5-.5.5-2.3 1.1-4 1.4-5.4.9-9 1.6-11.1 2.1-4.5 1-16.4 1.9-24.9 1.8-11 0-28.1-1.6-31.5-2.9-.8-.3-2.8-.8-4.5-1-7.8-1.2-26.6-8-38.7-14-8-4-23.7-13-24.8-14.3-.3-.3-2.7-2.4-5.5-4.5-12.7-9.9-25.7-24.8-35.9-41-6.1-9.8-16.6-30.6-16.6-33 0-.8-.4-1.7-.9-2.1-.8-.4-8.8-24-9.5-27.8-.1-.7-.5-2.1-.9-3.2-.7-2.1-1.6-6.6-2.2-10.2-.2-1.1-.6-2.9-.9-4-.3-1-.8-3.5-1.2-5.7-.3-2.1-.8-4.8-1-6-.3-1.1-.7-4.6-1-7.6-.2-3-.7-6.6-.9-8-2.3-13.8-2.4-66.7-.1-78.5.2-1.1.7-4.9 1-8.5.7-7 1.1-9.7 2.7-17.6.5-2.8 1.2-6.1 1.4-7.5 1-5 1.4-7.1 1.9-8.7.3-.9.7-2.8 1-4.2.6-3 1-4.5 3.2-12.5.9-3.3 1.7-6.7 1.9-7.5.2-.8.8-2.9 1.5-4.5.6-1.7 1.1-3.2 1-3.5-.1-.7 5.7-19.1 8.7-27.5 18.1-50.7 40.2-94.4 67.7-133.5 3.3-4.7 6.4-8.7 6.8-8.8.4-.2.8-.8.8-1.3s.9-2 2-3.2c1.1-1.2 5.2-6 9.1-10.7 8.9-10.7 25.2-27.5 34.4-35.4 3.9-3.3 7.5-6.5 8.2-7 3.3-2.9 4.3-3.6 5.2-3.6.5 0 1.1-.4 1.3-.9.7-2 23-15.9 34.6-21.6 6.7-3.3 12.2-6.3 12.2-6.6 0-2-15.8-4.2-29.5-4.2-19.6-.1-24.1 1.1-44 10.8-14.1 6.8-29.1 16.5-42.5 27.2-11.8 9.5-27.1 24.3-26.3 25.6.3.5.2.7-.4.4-.5-.3-1.6.2-2.4 1.1-17.3 20.3-27.8 34.3-38.6 51.7-7 11.2-22.3 38.6-22.3 39.9 0 .6-.9 2.2-2 3.6s-2 2.8-2 3.2c0 .4-2.5 6-5.6 12.5-5 10.7-17.3 39.4-17.9 41.8-.1.5-.7 2.3-1.4 4-.6 1.6-1.9 5-2.8 7.5-.8 2.5-1.8 5.2-2.1 6-.3.8-.6 2-.7 2.6 0 .6-.6 2.2-1.2 3.5-1.4 2.8-11 34.6-11.7 38.7-.2 1.5-.5 2.7-.6 2.7-.1 0-.3.7-.5 1.5s-.8 3.7-1.5 6.5c-.6 2.7-1.4 6.1-1.6 7.5-.3 1.4-.7 3.3-1 4.3-.3 1-.7 3-.9 4.5-.3 1.5-.6 3.6-.8 4.7-.8 3.7-2.2 13-3.2 21.5-.4 3-.9 6.6-1.1 8-.6 4.8-1.7 27.6-1.7 36.5 0 10.1 1.1 31.9 1.7 35.2.3 1.2.7 4.8 1.1 8 .3 3.2.8 6.9 1 8.3.2 1.4.7 4.5 1 7 .4 2.5 1.3 7.6 2.1 11.5.9 3.8 1.7 7.9 1.9 9 .8 4.4 1.6 7.4 4 15.5 1.4 4.7 2.7 9.2 2.9 10.1.3.9 2.5 6.7 5.1 13 9 22.2 20.8 41.3 35.2 56.9 1.7 1.9 4 4.4 5 5.5 4.4 5 21.4 18.5 23.1 18.5.6 0 1.2.4 1.4.8.4 1.1 10.6 7.1 21.3 12.4 19.4 9.7 46.9 18.3 68.5 21.4 8.4 1.2 9.5 1.3 18.5 2 16.7 1.3 40.1.8 54.5-1.2 3.6-.4 14.7-2.5 20.5-3.8 6-1.4 25.5-8.5 31.3-11.5.9-.5 5.2-2.6 9.5-4.6 12.2-5.8 36-21 42.7-27.5.9-.8 3.9-3.4 6.6-5.6 6.8-5.8 21.7-20.6 28.9-28.9 3.3-3.8 6.7-7.6 7.5-8.4 1.3-1.4 9.9-12.3 12.2-15.6.4-.5 1.8-2.4 3.1-4 4.8-6.3 10.7-15.4 10.7-16.4 0-.6.4-1.1 1-1.1.5 0 1.9-1.7 3-3.8 4-7.1 5.5-9.7 6.1-10.2 1.1-1 9.9-16.9 9.9-18 0-.5.4-1 1-1 .5 0 .9-.3.8-.8-.1-.4 1.6-4.1 3.7-8.2 4.6-8.8 16.4-34.8 17-37.5.2-.6 1.7-4.6 3.5-9s3.3-8.5 3.4-9c.2-.6 2.3-7.3 4.8-15 5-15.4 13.2-47.2 14.3-55.5.2-1.4.4-2.5.5-2.5.2 0 .6-2.3 1.4-7.2.3-2.1.7-4.7.9-5.8.5-2.3 1.8-10.8 2.2-14.2.2-1.3.6-4 .9-6 1-6.2 2-17 3.2-32.3.9-12 .9-51.1.1-61-1.3-15-2.6-25-4.1-32.5-.2-1.1-.7-4.1-1-6.8-.4-2.6-1.1-5.8-1.6-7.1-.5-1.3-.6-2.7-.3-3 .3-.3.2-1.1-.4-1.8-.5-.7-.9-2-.8-2.8 0-.8-.5-3.5-1.2-5.9-.7-2.5-1.1-4.2-.7-3.9.5.5 14.8-4.8 19.2-7.2 1.4-.7 3.6-1.6 6.2-2.5 1.3-.5 5-2 10-4.2 25-11.1 36-16.2 59.5-27.3 6.1-2.9 13.7-6.4 17-8 3.3-1.5 10.5-4.9 16-7.5 5.5-2.6 13.4-6.3 17.5-8.2 4.1-1.9 10.9-5.1 15-7.1s7.7-3.7 8-3.7c.3-.1 4.1-1.9 8.5-4s8.2-3.9 8.5-4c.5-.1 6.4-2.9 22.4-10.4l8.6-4.1v-4.5c0-4-.2-4.5-1.7-3.7-1 .5-4.3 2.1-7.3 3.5-13.5 6.1-28.8 13.2-42 19.5-5.8 2.7-14.8 7-20 9.5-5.2 2.4-15.8 7.5-23.5 11.2-7.7 3.7-17.6 8.4-22 10.5-4.4 2.1-14.3 6.8-22 10.5-7.7 3.6-15.6 7.3-17.5 8.2-1.9.8-4.2 1.9-5 2.4-.8.5-2.2 1.2-3 1.5-.8.3-4.3 1.9-7.7 3.5-3.5 1.6-6.5 2.9-6.7 2.9-.3 0-2.9 1.1-5.8 2.4-6.2 2.8-32.6 13.6-33.4 13.6-.5 0-2.3-4.3-2.9-7-.6-2.4-6.2-17.6-7.3-19.6-.6-1.1-2.7-5.5-4.7-9.9-16.6-36.1-44.8-63.5-76.3-74.4-7.3-2.5-15.1-4.7-27.7-7.8-6.3-1.5-31.8-3.6-32.8-2.7zM583 171c13.5 4.6 31.7 14.9 40.3 23 1.8 1.7 3.8 3 4.5 3 .6 0 1.1.4 1 .9-.2.5 1.1 2.2 2.7 3.8 7.4 7.3 21.4 25.5 21.5 28 0 .6.4 1.3.9 1.5 1.7.7 15.9 31.5 17.6 38.3.2 1.1 1.3 4 2.6 7.3s1.2 3.6-1.8 4.8c-4 1.7-28.5 10.5-30.3 11-.8.2-7.6 2.2-15 4.5-11.7 3.5-28.2 8-34.5 9.4-1.1.3-6 1.4-11 2.5-4.9 1.1-10.6 2.3-12.5 2.6-1.9.2-4.2.6-5 .9-4.5 1.3-13.1 1.9-26.5 1.9-16.7 0-21.4-.3-23.2-1.7-.7-.5-1.3-.7-1.3-.4 0 .3-2.3-.3-5-1.3-23.6-8.6-33.2-28.1-29.5-59.5.4-3.9.9-7.9 1-9 .2-2.2 4-14.8 5.4-18 .5-1.1 1.7-4 2.7-6.5 2.2-5.1 10-17.4 14.1-22.1 11.3-12.9 23.9-20.7 40.8-25.4 11-3 30.8-2.8 40.5.5z"/></svg>