<svg xmlns="http://www.w3.org/2000/svg" viewBox="0 0 84.82 81.41"><title>Asset 1</title><g id="Layer_2" data-name="Layer 2"><g id="Layer_1-2" data-name="Layer 1"><path d="M82.18,15.41l1.88-7.79a3,3,0,0,0-5.54-2.31,3,3,0,0,0-.22.92L76.68,13a8,8,0,0,0-4.45.77,8.59,8.59,0,0,0-3.46,3.48l-3.4,6.07c-.57,1-1.21,2-1.89,3v-5a8.86,8.86,0,0,0-2-5.9A10.41,10.41,0,0,0,59.76,14,7.82,7.82,0,0,0,64,11.53v-.12c3-2.82,2.92-7.31,2.91-7.5a.89.89,0,0,0-.77-1H66c-.17,0-4.63,0-7.43,2.79a7.13,7.13,0,0,0-.9,1.15,27.26,27.26,0,0,0-.2-3.25,1,1,0,1,0-2,.23,33.74,33.74,0,0,1-.08,8.4,8.6,8.6,0,0,0-9.11,6.26l-1,3.13a29.69,29.69,0,0,1-1.68,4.28,6,6,0,0,0-3.1-.15L42,23.22a6.84,6.84,0,0,0,.27-6,6.76,6.76,0,0,0-2.65-3.09A10.25,10.25,0,0,0,42,11c2-4.1.41-8.82.34-9a1,1,0,0,0-1.87-.06s-1.32,3.16-3.09,6.87l-.46,1A5.4,5.4,0,0,1,37,8.72c.28-4.1.69-7.47.69-7.5A1,1,0,0,0,36,.29c-.16.14-3.83,3.48-4.14,8a10.63,10.63,0,0,0,.56,4,6.71,6.71,0,0,0-3.54,1.38,7,7,0,0,0-2.82,5.45l-.14,7.36c-2.81-2.54-6.8-3.54-11.2-2.83a8.83,8.83,0,0,0,2-4.63c.3-3.85-2.78-7.12-2.91-7.26a1,1,0,0,0-1.33-.1,11.72,11.72,0,0,0-1.6,1.55A15.22,15.22,0,0,0,6,9.81a1,1,0,0,0-1.26.44c-.11.2-2.72,5-1.17,9.47a11.85,11.85,0,0,0,5.25,5.86A15.39,15.39,0,0,0,2.7,30.91a11.44,11.44,0,0,0-1.23,9.5H1a1,1,0,0,0-1,1v39a1,1,0,0,0,1,1H81a1,1,0,0,0,1-1v-39a1,1,0,0,0-.93-1l3.61-17.35A8.36,8.36,0,0,0,82.18,15.41ZM70.51,18.19a6.61,6.61,0,0,1,2.64-2.68A6.36,6.36,0,0,1,77.27,15a.49.49,0,0,0,.17,0,.67.67,0,0,0,.2,0l.18-.07a.58.58,0,0,0,.31-.2.86.86,0,0,0,.13-.14.66.66,0,0,0,.09-.19,1,1,0,0,0,.07-.15L80.25,6.7A1,1,0,0,1,81.49,6l.1,0a1,1,0,0,1,.53,1.1l-2,8.35v.14a.81.81,0,0,0,0,.22,1.21,1.21,0,0,0,0,.18,1.34,1.34,0,0,0,.07.18,1.09,1.09,0,0,0,.13.17l.09.11a6.44,6.44,0,0,1,2.29,6.18l-.6,2.87-.79-.94a5,5,0,0,0-4.08-1.77H77.1a2.93,2.93,0,0,1-2.5-1.14A5,5,0,0,0,70,19.84h-.2l-.28.1Zm-3.4,6.07L68,22.62l2.32-.81A3,3,0,0,1,73,22.94a5,5,0,0,0,4.2,1.91h.19a3,3,0,0,1,2.44,1.06L81.57,28h.06L79,40.41H72a1,1,0,0,0-1,1v11H49.27L53,45.48a4.8,4.8,0,0,0,4.91.41,5.05,5.05,0,0,0-.46-9.26c2.09-2.27,4.2-4.58,6.11-7h0a42.74,42.74,0,0,0,3.55-5.38ZM2,42.41H9v10H2Zm9,5.28c2.31-5.91,8.59-9.88,15.65-9.88a18.73,18.73,0,0,1,4.71.61,6.37,6.37,0,0,0,4,4.57,6.08,6.08,0,0,0,4,.06l-.46,3.36a6.05,6.05,0,0,0-7.59.19c-.15.13-.28.28-.42.42a5.82,5.82,0,0,0-9.65,5.39H11Zm69,6.72v7H2v-7ZM23.08,51.33a3.83,3.83,0,0,1,7.66,0,3.77,3.77,0,0,1-.16,1.11H23.26A3.94,3.94,0,0,1,23.08,51.33Zm9.57,1.08a5.64,5.64,0,0,0,.1-1.08,5.85,5.85,0,0,0-.67-2.72h0a3.48,3.48,0,0,1,.47-.47,4,4,0,0,1,5.71.47h0a1,1,0,0,0,.23.18L38,52.27v.14ZM2,63.41H80v7H2Zm71-11v-10h7v10ZM60.09,7.08a8.45,8.45,0,0,1,5-2.1A8.42,8.42,0,0,1,63,10h0a8.45,8.45,0,0,1-5,2.1A8.49,8.49,0,0,1,60.09,7.08ZM47.31,22.25l1-3.13a6.74,6.74,0,0,1,13.22,2.1v3.23a31.48,31.48,0,0,0,.23,4.23c-1.25,1.58-2.59,3.11-4,4.62a6.38,6.38,0,0,0-4.2-5.63,6.18,6.18,0,0,0-6.18,1.23,6.31,6.31,0,0,0-1.83-2A32.79,32.79,0,0,0,47.31,22.25Zm-4,5.66a4.36,4.36,0,0,1,2.74,3,1,1,0,0,0,.47.61h0a1,1,0,0,0,1.38-.29,4.23,4.23,0,0,1,5-1.71,4.47,4.47,0,0,1,2.59,5.77,4.54,4.54,0,0,1-.81,1.35l-.09.16a1.62,1.62,0,0,0-.1.18.54.54,0,0,0,0,.18.67.67,0,0,0,0,.2h0l.09.3h0a1,1,0,0,0,1,.58,2.84,2.84,0,0,1,1.23.15,3,3,0,0,1,1.81,3.84h0A3,3,0,0,1,57,44.09a2.81,2.81,0,0,1-2.2.12,3,3,0,0,1-1.34-1,1,1,0,0,0-1.4-.19,1,1,0,0,0-.32.48h0L47,52.41H44.34l2.43-7.17a1,1,0,0,0-1.89-.64l-2.57,7.57a.89.89,0,0,0,0,.23H40l2-10.9h0a1.55,1.55,0,0,0-.36-.84,1.13,1.13,0,0,0-1.5-.19,4.28,4.28,0,0,1-4,.63,4.45,4.45,0,0,1-2.67-5.61,4.31,4.31,0,0,1,3.34-2.9h.1l.16-.06.18-.11.1-.1a1.33,1.33,0,0,0,.14-.19V32a1,1,0,0,0,.07-.25h0a4.43,4.43,0,0,1,.23-1.08A4.34,4.34,0,0,1,40,28.08a4.16,4.16,0,0,1,3.28-.18ZM41,5.74a9.24,9.24,0,0,1-.78,4.37,8.85,8.85,0,0,1-2.62,3.11h-.15c.49-1,1.1-2.2,1.76-3.56S40.47,6.86,41,5.74ZM33.86,8.41a9.21,9.21,0,0,1,1.47-4.18c-.12,1.22-.24,2.67-.35,4.25-.09,1.3-.16,2.65-.22,4h-.2a.74.74,0,0,0,0-.21A8.83,8.83,0,0,1,33.86,8.41ZM30.1,15.29a4.71,4.71,0,0,1,4-.86l3.19.78A4.71,4.71,0,0,1,40.42,18a4.84,4.84,0,0,1-.18,4.28L39.3,24,36,23.09A1,1,0,0,0,35.51,25l2.8.74-1,1.91A6.38,6.38,0,0,0,36,30a7.79,7.79,0,0,0-.22.83,6.26,6.26,0,0,0-4.49,5.49,20.27,20.27,0,0,0-3.47-.48V33.55l2.28.6a1,1,0,0,0,.51-1.93l-2.75-.72.08-4.38,2.75.72a1,1,0,0,0,.51-1.93l-2.9-.76a.86.86,0,0,0-.32,0l.1-5.21,2.46.65A1,1,0,0,0,31,18.68L28.25,18a5.19,5.19,0,0,1,1.84-2.64ZM12.93,13.9a7.91,7.91,0,0,1,1.75,5,7.92,7.92,0,0,1-2.5,4.64,7.89,7.89,0,0,1-1.75-5A7.92,7.92,0,0,1,12.93,13.9ZM5.47,19.06c-.91-2.61,0-5.56.63-7a12.54,12.54,0,0,1,3.52,2.8,8,8,0,0,0-1.18,3.55A9.39,9.39,0,0,0,10.1,24c-1.39-.82-3.75-2.48-4.62-5ZM4.41,32A14.49,14.49,0,0,1,12,26.41c5.76-2,11.08-.88,13.88,2.95h0l-.12,6.47A19.06,19.06,0,0,0,11,43.52V41.41a1,1,0,0,0-1-1H3.55A9.58,9.58,0,0,1,4.41,32ZM80,79.41H2v-7H80Z"/></g></g></svg>