<?xml version="1.0" encoding="utf-8"?>
<!-- Generator: Adobe Illustrator 22.0.1, SVG Export Plug-In . SVG Version: 6.00 Build 0)  -->
<svg version="1.1" id="Layer_1" xmlns="http://www.w3.org/2000/svg" xmlns:xlink="http://www.w3.org/1999/xlink" x="0px" y="0px"
	 viewBox="0 0 83.4 98" style="enable-background:new 0 0 83.4 98;" xml:space="preserve">
<style type="text/css">
	.st0{fill:#E2492F;}
</style>
<path class="st0" d="M0,64.6c0.6-1.4,2-2.2,3.5-2c1.8,0.1,3.6,0,5.4,0l0.2-2.1h65.1l0.2,2.1c1.8,0,3.5,0.1,5.2,0
	c2-0.1,3.3,0.6,3.9,2.5v4.2c-0.7,1.9-2.1,2.5-4,2.4c-1.7-0.1-3.4,0-5.2,0c0,3.2,0,6.2,0,9.2c0,7.6-5,14.3-12.4,16.4
	c-1,0.3-1.9,0.5-2.9,0.7H24.2c-0.2-0.1-0.5-0.2-0.7-0.2C15.1,96.5,9,89.3,9,80.8c0-3,0-6,0-9.1c-1.9,0-3.6-0.1-5.3,0
	c-1.5,0.2-3-0.5-3.7-1.9L0,64.6L0,64.6z M70.8,63.8H12.3c0,6-0.1,11.9,0,17.8c0.3,7.1,6.1,12.8,13.2,12.9c10.7,0.1,21.4,0.1,32.1,0
	c6.7-0.1,12.6-5.3,13-11.9c0.4-6.2,0.2-12.4,0.2-18.7C70.9,63.9,70.8,63.9,70.8,63.8L70.8,63.8z M74.2,66l0.1,2.3h5.6V66H74.2z
	 M8.9,66H3.4v2.3h5.6C8.9,68.3,8.9,66,8.9,66z"/>
<path class="st0" d="M74.9,51.9l-64.5,5.7c-0.6-1.6-0.5-3.5,0.3-5c1.2-2.2,3-4.1,5.1-5.3c3.6-2.4,7.6-3.9,11.9-4.5
	c2.5-0.4,5-1,7.5-1.5c0.4-0.2,0.7-0.4,1-0.8l-0.2-0.3h-1c-0.2,0-0.4,0-0.7,0c-1.9-0.3-2.7-1.9-2.6-5.2c0-1.5,1.1-2.7,2.6-2.8
	c4.2-0.4,8.5-0.8,12.7-1.1c1.9-0.1,2.9,0.8,3.1,2.8c0.1,0.6,0.2,1.2,0.2,1.8c0.1,2.1-0.6,3-2.7,3.5c-0.4,0.2-0.7,0.4-1,0.7l0.2,0.7
	h10.1c4.6,0,9.2,1.2,13.2,3.5c1.1,0.6,2,1.4,2.9,2.2C74.5,47.5,75.3,49.8,74.9,51.9z M70.7,49l0.2-0.3c-0.7-0.6-1.4-1.2-2.1-1.7
	c-3.5-2.1-7.5-3.3-11.6-3.4c-3.7-0.1-7.3-0.1-11-0.2c-1.5,0-2.7-1.1-2.8-2.6c0-0.4,0-0.9,0-1.3c0-2.8,0.4-3.3,3.1-3.9
	c0.1-0.1,0.3-0.1,0.4-0.2l-0.3-1.2l-11.8,1l0.2,1.4c0.6,0,1,0,1.4,0c1.2,0,2.3,0.8,2.5,2.1c0.2,0.9,0.3,1.7,0.3,2.6
	c0.1,1.4-0.9,2.7-2.3,2.9c-2.8,0.6-5.6,1.2-8.4,1.7c-4.8,0.6-9.4,2.6-13.1,5.8c-0.7,0.7-1.3,1.3-1.9,2.1L14,54L70.7,49z"/>
<path class="st0" d="M73.1,16.3c-0.5,1.8-1.1,3.5-1.6,5.3c-1.5,5.3-0.3,11.1,3.3,15.3c1.7,2.2,3.6,4.2,5.3,6.4c0.8,1,1.5,2.1,2,3.2
	c1.3,2.9,0.6,5.7-2.2,7.3c-1.9,0.9-3.9,1.7-6,2.4c0-0.2-0.1-0.3-0.1-0.5c0.3-0.2,0.6-0.3,0.9-0.5c1.4-0.8,2.8-1.8,4.2-2.8
	c1.5-1,1.9-3,0.9-4.5c-0.1-0.1-0.2-0.3-0.3-0.4c-1.2-1.5-2.5-3-3.9-4.4c-2.9-3.1-5.6-6.4-6.8-10.6C67.5,26.6,69.1,20.6,73.1,16.3z"
	/>
<path class="st0" d="M74.3,0c-0.2,0.7-0.4,1.1-0.5,1.5c-1,2.8-0.4,5.9,1.6,8.1c0.9,1,1.9,2.1,2.7,3.2c2.2,2.6,1.9,6.5-0.7,8.8
	c-0.8,0.8-1.8,1.5-2.9,2.1c0.6-0.8,1.2-1.6,1.7-2.5c1.9-3.1,1.7-5.1-0.6-7.8c-1.1-1.2-2.1-2.5-2.9-3.8C71,6.4,71.6,2.4,74.3,0z"/>
</svg>
